HIERARCHY
ROOT hip
{
	OFFSET 0.000000 0.000000 0.000000 
	CHANNELS 6 Xposition Yposition Zposition Xrotation Zrotation Yrotation
	JOINT abdomen
	{
		OFFSET 0.000000 3.402643 0.000000 
		CHANNELS 3 Xrotation Zrotation Yrotation
		JOINT chest
		{
			OFFSET 0.000000 8.438565 -0.680529 
			CHANNELS 3 Xrotation Zrotation Yrotation
			JOINT neck
			{
				OFFSET 0.000000 10.207942 -0.272212 
				CHANNELS 3 Xrotation Zrotation Yrotation
				JOINT head
				{
					OFFSET 0.000000 3.130431 0.000000 
					CHANNELS 3 Xrotation Zrotation Yrotation
					End Site
					{
						OFFSET 0.000000 3.130435 0.000000 
					}
				}
			}
			JOINT lCollar
			{
				OFFSET 3.470700 6.669187 -0.816635 
				CHANNELS 3 Yrotation Zrotation Xrotation
				JOINT lShldr
				{
					OFFSET 3.198488 0.000000 0.000000 
					CHANNELS 3 Zrotation Yrotation Xrotation
					JOINT lForeArm
					{
						OFFSET 10.139888 0.000000 0.000000 
						CHANNELS 3 Yrotation Zrotation Xrotation
						JOINT lHand
						{
							OFFSET 8.370511 0.000000 0.000000 
							CHANNELS 3 Zrotation Yrotation Xrotation
							End Site
							{
								OFFSET 4.083176 0.000000 0.000000 
							}
						}
					}
				}
			}
			JOINT rCollar
			{
				OFFSET -3.470700 6.669187 -0.816635 
				CHANNELS 3 Yrotation Zrotation Xrotation
				JOINT rShldr
				{
					OFFSET -3.198488 0.000000 0.000000 
					CHANNELS 3 Zrotation Yrotation Xrotation
					JOINT rForeArm
					{
						OFFSET -10.139888 0.000000 0.000000 
						CHANNELS 3 Yrotation Zrotation Xrotation
						JOINT rHand
						{
							OFFSET -8.370511 0.000000 0.000000 
							CHANNELS 3 Zrotation Yrotation Xrotation
							End Site
							{
								OFFSET -4.083176 0.000000 0.000000 
							}
						}
					}
				}
			}
		}
	}
	JOINT lThigh
	{
		OFFSET 5.308129 -1.633274 1.361059 
		CHANNELS 3 Xrotation Zrotation Yrotation
		JOINT lShin
		{
			OFFSET -2.041588 -20.007561 0.000000 
			CHANNELS 3 Xrotation Zrotation Yrotation
			JOINT lFoot
			{
				OFFSET 0.000000 -19.190928 -1.224953 
				CHANNELS 3 Xrotation Yrotation Zrotation
				End Site
				{
					OFFSET 0.000000 -2.449906 4.627600 
				}
			}
		}
	}
	JOINT rThigh
	{
		OFFSET -5.308129 -1.633274 1.361059 
		CHANNELS 3 Xrotation Zrotation Yrotation
		JOINT rShin
		{
			OFFSET 2.041588 -20.007561 0.000000 
			CHANNELS 3 Xrotation Zrotation Yrotation
			JOINT rFoot
			{
				OFFSET 0.000000 -19.190928 -1.224953 
				CHANNELS 3 Xrotation Yrotation Zrotation
				End Site
				{
					OFFSET 0.000000 -2.449906 4.627600 
				}
			}
		}
	}
}
MOTION
Frames: 16
Frame Time: 0.033333
29.805332 38.770916 37.628498 9.337419 -11.133604 -65.081871 -23.081680 -3.434572 0.648769 51.313629 -6.696376 -35.464478 12.497234 -13.549870 33.583218 -25.516043 14.310835 28.210270 -18.404156 -10.165226 18.371080 -36.705257 -64.044731 -0.470781 -3.631663 -1.799294 -100.749733 5.484096 6.347101 0.006698 19.926462 -8.277154 15.964771 -39.604137 107.255318 -44.843697 1.748891 3.760734 -64.635033 -0.558882 -21.202826 -0.197190 -60.044365 41.618950 -9.481993 68.774689 0.687046 -0.084122 -7.041451 1.546296 -14.333411 -30.516506 -1.064424 -0.908264 73.541138 3.172507 -18.386280 -29.191784 -6.133782 18.233015 
29.920918 38.761559 37.535534 9.836489 -11.454804 -67.120041 -23.081680 -3.434572 0.648769 51.693649 -6.901761 -35.528473 11.234904 -14.961543 34.141251 -25.867762 15.880598 27.764172 -18.351168 -10.844963 16.871553 -38.929756 -64.441193 2.031922 -4.063083 -2.175704 -102.746765 8.038452 1.047285 -0.250952 20.429226 -8.507209 15.745028 -39.785385 107.162300 -45.495514 1.762087 3.764401 -64.682747 -1.530010 -20.665478 -0.023491 -59.445915 43.160564 -10.121699 68.514191 0.472224 0.850325 -6.711010 1.600112 -15.204812 -30.996731 0.624728 -0.225290 73.392082 2.851673 -18.409687 -28.696449 -5.858202 17.694389 
30.019861 38.769699 37.395988 10.285995 -11.477776 -68.680878 -23.081680 -3.434572 0.648769 51.658241 -7.355331 -35.244003 11.436719 -15.132790 34.306774 -25.761217 15.721502 28.031870 -19.334892 -11.564381 15.627946 -37.052853 -63.074856 0.414228 -4.194153 -2.237516 -104.274818 9.664404 -2.213662 -0.525736 20.892551 -7.882849 14.533601 -42.862137 107.652771 -48.933941 1.725887 3.795991 -64.068176 -2.503241 -20.138384 0.140904 -59.212086 44.928249 -10.055172 68.032661 0.169717 0.822431 -6.267558 1.564052 -15.460089 -31.667646 1.972467 0.410203 73.315964 2.842638 -18.473433 -28.289059 -5.631790 17.144985 
30.046303 38.709892 37.343628 10.241882 -11.633293 -69.186676 -23.081680 -3.434572 0.648769 51.592979 -7.724517 -34.587234 12.683835 -14.279708 33.948380 -25.960863 14.546516 28.423031 -19.845520 -11.452910 16.295073 -35.439487 -63.141876 -1.197469 -4.124883 -2.108835 -104.371185 8.770156 -1.526359 -0.428904 20.595797 -7.221506 13.889551 -44.729881 107.893707 -50.533932 1.825981 3.809672 -64.095337 -3.163806 -20.070414 0.255320 -59.049717 45.867508 -9.499125 68.060600 0.062317 0.209931 -6.226038 1.538060 -15.203728 -31.903500 2.714813 0.985761 73.660286 2.638965 -19.027321 -28.150297 -5.659128 17.332069 
30.065142 38.691177 37.293911 10.117325 -11.772483 -68.893608 -23.081680 -3.434572 0.648769 51.749870 -7.902598 -33.501724 12.736698 -12.016438 33.536808 -24.812738 13.032711 28.920103 -19.334690 -10.091758 17.066738 -36.046909 -63.522953 -1.718191 -3.773916 -1.722089 -102.152855 5.141339 3.757921 -0.086597 19.298229 -6.893416 13.008103 -46.161106 108.610634 -52.085411 1.936660 3.834073 -64.012459 -3.405271 -20.197567 0.298669 -59.122478 46.294262 -8.972717 67.970505 -0.152723 -0.745784 -6.140609 1.465916 -14.540072 -31.898674 3.241188 1.476752 73.781929 2.518989 -20.076080 -27.885857 -5.785579 17.922251 
30.050737 38.693211 37.246433 10.094974 -11.975451 -68.327118 -23.081680 -3.434572 0.648769 51.761620 -8.154459 -31.111303 12.526278 -10.456083 32.376858 -23.747370 12.095514 28.263012 -19.028540 -9.670361 18.258696 -34.939114 -64.657272 -2.883099 -3.562102 -1.144644 -99.376518 3.143337 8.156275 -0.019470 17.867136 -7.429286 12.444231 -46.581764 109.394745 -52.379848 1.964959 3.812934 -64.914658 -3.876358 -20.822899 0.397059 -59.401226 46.570541 -8.473257 67.840836 -0.133268 -1.826600 -6.027501 1.398303 -13.852217 -31.666468 3.642379 1.635762 73.733101 2.470315 -21.023218 -27.680435 -5.889927 18.412209 
30.037804 38.702568 37.276009 9.696259 -11.999216 -67.356918 -23.081680 -3.434572 0.648769 51.690243 -7.974481 -29.928358 12.303102 -9.670025 31.965586 -23.566818 11.757613 28.026129 -19.045012 -9.650381 18.500113 -33.936928 -64.592163 -4.472980 -3.437260 -1.165930 -97.737236 2.871645 9.737729 -0.006120 17.927113 -7.299702 12.717111 -45.114914 109.074158 -50.438282 1.953846 3.803998 -65.175049 -4.084207 -21.418732 0.447928 -59.364021 46.229748 -7.711308 67.810089 -0.318871 -2.755431 -6.091081 1.337163 -12.986959 -31.392710 3.368376 2.033284 73.791939 2.567663 -21.922024 -27.564928 -6.071702 19.114265 
29.954885 38.784748 37.320721 9.217310 -12.015450 -65.743706 -23.081680 -3.434572 0.648769 51.248398 -7.737321 -28.379700 12.247763 -9.543070 31.608999 -23.565491 12.228746 27.484434 -18.773535 -10.771222 17.667738 -34.185432 -63.928051 -3.282521 -3.526622 -1.023909 -97.293419 2.666085 10.440458 -0.006802 19.555473 -7.726705 14.615110 -43.461761 107.199394 -49.029259 1.779660 3.761547 -64.889915 -4.293108 -22.014574 0.495313 -59.153503 45.377052 -6.878130 67.512489 -0.484846 -3.751573 -6.139075 1.243691 -12.038921 -30.600729 2.567433 2.083582 73.445984 2.941627 -22.699987 -27.560078 -6.256971 19.768709 
29.799557 38.955215 37.382240 8.503227 -12.482864 -63.970631 -23.081680 -3.434572 0.648769 51.645538 -7.617717 -26.333174 12.637455 -9.021662 31.088606 -24.480925 12.445037 26.889807 -18.282543 -11.096684 17.407616 -33.307045 -63.877460 -2.998239 -3.828373 -1.037035 -98.874443 1.595631 11.044385 -0.070100 20.331650 -8.138500 15.438043 -40.640717 106.178207 -46.124031 1.777088 3.761615 -65.616905 -4.952924 -22.454615 0.641659 -57.695133 44.447174 -5.640809 66.667427 -0.589080 -4.712430 -6.177215 1.147650 -11.176698 -28.668076 1.835330 1.828602 72.366875 3.036534 -23.587351 -27.426678 -6.396974 20.407333 
29.666885 39.224949 37.480206 7.609490 -12.713034 -62.183777 -23.081680 -3.434572 0.648769 52.034130 -7.912855 -23.404757 12.312778 -7.598264 30.064461 -24.064665 11.728720 26.235306 -18.068836 -11.048533 17.050924 -31.989395 -64.426521 -4.333273 -3.919409 -0.924717 -98.445938 1.981499 11.874924 -0.048289 20.587950 -8.256598 15.325372 -38.218075 105.405846 -43.335976 1.790696 3.743288 -66.184860 -5.494727 -23.480228 0.787304 -55.598991 43.286858 -3.920468 65.324005 -0.865516 -5.486771 -6.077408 1.054139 -10.277637 -26.560745 0.390788 1.421797 70.788010 3.504697 -23.801756 -27.306917 -6.412786 20.566875 
29.512083 39.526829 37.481384 6.946074 -12.624524 -60.208447 -23.081680 -3.434572 0.648769 51.825703 -8.361862 -19.491776 12.468534 -4.973720 28.511372 -22.704357 9.320119 25.873728 -18.676130 -11.403526 17.473581 -27.139721 -64.501686 -8.192959 -4.041365 -0.809481 -99.857620 0.556572 12.987031 -0.146584 20.591810 -8.185496 14.892772 -35.173981 104.553322 -39.930748 1.760086 3.742922 -66.608322 -6.239285 -24.535294 0.981928 -54.063843 42.142773 -2.551947 63.613895 -1.246295 -6.407427 -5.645416 0.947314 -9.398417 -24.793604 -1.083623 0.628922 69.120560 4.258116 -23.907587 -27.290653 -6.351406 20.391077 
29.337955 39.816090 37.539722 5.821308 -12.466710 -57.678707 -23.081680 -3.434572 0.648769 51.621357 -8.876409 -15.283463 14.096248 -3.019362 26.932859 -23.300434 7.184769 25.308958 -19.504827 -11.078619 17.542902 -22.793934 -64.945290 -13.082240 -4.162485 -0.582095 -100.155121 -0.328275 13.670589 -0.227638 20.563120 -8.508624 14.101876 -32.039364 103.524506 -36.255535 1.840237 3.724734 -67.636841 -6.970861 -25.707180 1.195483 -52.213543 39.900082 -1.166260 61.894955 -1.275315 -6.881632 -5.301459 0.820838 -8.711894 -22.603056 -3.212049 -0.327310 67.519203 5.078525 -23.949564 -27.354279 -6.352912 20.424751 
29.099590 40.122032 37.499489 4.577545 -12.276366 -54.755127 -23.081680 -3.434572 0.648769 51.422684 -9.398076 -11.236540 14.085491 -0.535382 24.845821 -22.378653 5.278902 24.076715 -19.802895 -10.486914 16.957611 -17.987679 -65.466003 -16.972048 -4.424817 -0.369424 -101.585297 -0.366275 14.442054 -0.247432 20.386866 -8.260364 13.421537 -25.563562 102.000839 -28.785015 1.741281 3.703957 -66.882866 -6.587961 -26.428816 1.149038 -50.350918 37.460464 -0.381966 59.718163 -1.576445 -7.361023 -4.583090 0.719223 -8.166660 -20.171080 -5.057728 -1.748925 65.780083 5.702607 -24.386667 -27.382668 -6.371993 20.505035 
28.798691 40.351490 37.571377 2.788570 -12.290560 -51.688732 -23.081680 -3.434572 0.648769 51.335003 -9.843889 -6.956082 15.486868 1.154580 23.043385 -23.181158 3.320518 23.097166 -20.527805 -9.664275 17.198141 -10.527822 -65.933945 -23.353085 -4.824546 -0.181415 -104.645393 0.154764 14.764270 -0.200853 20.644249 -9.134619 13.367506 -13.297185 100.332497 -16.349539 1.622997 3.673066 -65.832809 -6.214638 -27.023842 1.088517 -47.834187 35.082375 0.977212 57.941711 -1.792348 -8.361387 -4.257873 0.626800 -7.372760 -17.037374 -6.834445 -3.334893 64.221596 5.727892 -25.089575 -27.446848 -6.524604 21.112791 
28.548647 40.592747 37.565926 1.067845 -11.892525 -48.561241 -23.081680 -3.434572 0.648769 50.965992 -10.229693 -2.999811 16.749739 2.550249 20.830761 -24.568853 1.765194 21.511776 -21.194901 -8.950477 17.045935 -3.047746 -65.721779 -30.354567 -5.363566 0.757389 -106.834908 0.230039 15.272078 -0.204090 21.303028 -10.514706 14.047742 11.569303 99.169418 8.403036 1.508635 3.644235 -64.991791 -5.628166 -27.033304 0.949754 -45.648094 32.534458 2.252994 55.753216 -2.104685 -9.356521 -3.493726 0.510536 -6.540049 -14.390755 -8.591160 -4.714012 62.769226 6.061517 -26.036882 -27.361572 -6.634274 21.646164 
28.323826 40.798607 37.518932 -0.518277 -11.532744 -45.765656 -23.081680 -3.434572 0.648769 50.677319 -10.184490 0.418614 17.330992 3.125741 18.808010 -26.240892 0.471860 19.977352 -20.807865 -7.896060 15.738770 3.009025 -65.585426 -36.933521 -6.022200 1.934503 -107.039688 0.697136 14.549570 -0.152656 22.749630 -13.197516 16.261192 46.618473 101.181923 42.679268 1.368110 3.598630 -64.195877 -4.957372 -26.027561 0.756106 -43.569138 30.406328 3.359968 53.549377 -2.445864 -10.439887 -2.600455 0.391439 -5.835476 -11.931372 -10.017281 -6.259798 61.442120 6.228404 -26.829113 -27.259562 -6.716453 22.013552 
